<svg width="36" height="36" viewBox="0 0 36 36" fill="none" xmlns="http://www.w3.org/2000/svg">
<path d="M15.6665 9.83333C15.6665 9.21449 15.9123 8.621 16.3499 8.18342C16.7875 7.74583 17.381 7.5 17.9998 7.5C18.6187 7.5 19.2122 7.74583 19.6498 8.18342C20.0873 8.621 20.3332 9.21449 20.3332 9.83333C21.673 10.4669 22.8151 11.453 23.6372 12.6862C24.4593 13.9193 24.9304 15.3529 24.9998 16.8333V20.3333C25.0876 21.0587 25.3445 21.7532 25.7498 22.3611C26.1551 22.9691 26.6974 23.4733 27.3332 23.8333H8.6665C9.30227 23.4733 9.84461 22.9691 10.2499 22.3611C10.6552 21.7532 10.912 21.0587 10.9998 20.3333V16.8333C11.0693 15.3529 11.5404 13.9193 12.3624 12.6862C13.1845 11.453 14.3267 10.4669 15.6665 9.83333" stroke="#69778A" stroke-width="1.4" stroke-linecap="round" stroke-linejoin="round"/>
<path d="M14.5 23.8335V25.0002C14.5 25.9284 14.8687 26.8187 15.5251 27.475C16.1815 28.1314 17.0717 28.5002 18 28.5002C18.9283 28.5002 19.8185 28.1314 20.4749 27.475C21.1313 26.8187 21.5 25.9284 21.5 25.0002V23.8335" stroke="#69778A" stroke-width="1.4" stroke-linecap="round" stroke-linejoin="round"/>
</svg>
