<svg width="72" height="72" viewBox="0 0 72 72" fill="none" xmlns="http://www.w3.org/2000/svg">
<rect opacity="0.3" width="72" height="72" rx="4" fill="#DBE4F0"/>
<path d="M31.2498 34.4167C34.7476 34.4167 37.5832 31.5811 37.5832 28.0833C37.5832 24.5855 34.7476 21.75 31.2498 21.75C27.752 21.75 24.9165 24.5855 24.9165 28.0833C24.9165 31.5811 27.752 34.4167 31.2498 34.4167Z" stroke="#2B6DBA" stroke-width="1.4" stroke-linecap="round" stroke-linejoin="round"/>
<path d="M21.75 50.25V47.0833C21.75 45.4036 22.4173 43.7927 23.605 42.605C24.7927 41.4173 26.4036 40.75 28.0833 40.75H34.4167C36.0964 40.75 37.7073 41.4173 38.895 42.605C40.0827 43.7927 40.75 45.4036 40.75 47.0833V50.25" stroke="#2B6DBA" stroke-width="1.4" stroke-linecap="round" stroke-linejoin="round"/>
<path d="M47.0835 28.0835V32.8335" stroke="#2B6DBA" stroke-width="1.4" stroke-linecap="round" stroke-linejoin="round"/>
<path d="M47.0835 39.1665V39.1823" stroke="#2B6DBA" stroke-width="1.4" stroke-linecap="round" stroke-linejoin="round"/>
</svg>
