<svg width="72" height="72" viewBox="0 0 72 72" fill="none" xmlns="http://www.w3.org/2000/svg">
<rect opacity="0.3" width="72" height="72" rx="4" fill="#DBE4F0"/>
<path d="M47.0833 28.0835H24.9167C23.1678 28.0835 21.75 29.5013 21.75 31.2502V45.5002C21.75 47.2491 23.1678 48.6668 24.9167 48.6668H47.0833C48.8322 48.6668 50.25 47.2491 50.25 45.5002V31.2502C50.25 29.5013 48.8322 28.0835 47.0833 28.0835Z" stroke="#2B6DBA" stroke-width="1.4" stroke-linecap="round" stroke-linejoin="round"/>
<path d="M29.6665 28.0833V24.9167C29.6665 24.0768 30.0001 23.2714 30.594 22.6775C31.1879 22.0836 31.9933 21.75 32.8332 21.75H39.1665C40.0064 21.75 40.8118 22.0836 41.4057 22.6775C41.9995 23.2714 42.3332 24.0768 42.3332 24.9167V28.0833" stroke="#2B6DBA" stroke-width="1.4" stroke-linecap="round" stroke-linejoin="round"/>
<path d="M36 36V36.0158" stroke="#2B6DBA" stroke-width="1.4" stroke-linecap="round" stroke-linejoin="round"/>
<path d="M21.75 37.5835C26.17 39.8107 31.0505 40.9709 36 40.9709C40.9495 40.9709 45.83 39.8107 50.25 37.5835" stroke="#2B6DBA" stroke-width="1.4" stroke-linecap="round" stroke-linejoin="round"/>
</svg>
