<svg width="44" height="44" viewBox="0 0 44 44" fill="none" xmlns="http://www.w3.org/2000/svg">
<path d="M44 44H0V0H44V44ZM26.3318 14.4056C24.3166 14.4078 22.3474 15.0084 20.674 16.1312C19.0005 17.254 17.6982 18.8485 16.932 20.7124C16.1659 22.5763 15.9705 24.6258 16.3707 26.6009C16.7708 28.576 17.7484 30.3878 19.1796 31.8065C20.6107 33.2253 22.4309 34.1872 24.4094 34.5702C26.3879 34.9531 28.4356 34.74 30.2928 33.9577C32.15 33.1755 33.7331 31.8593 34.8413 30.1762C35.9496 28.4931 36.5331 26.5188 36.5178 24.5036C36.512 23.1717 36.244 21.854 35.729 20.6258C35.214 19.3975 34.4621 18.2827 33.5162 17.345C32.5703 16.4073 31.449 15.6651 30.2163 15.1607C28.9836 14.6564 27.6637 14.3998 26.3318 14.4056ZM13.0702 34.7028V14.487H9.0926V34.7028H13.0702ZM20.2818 11.2772H32.3818V9.3874H20.2818V11.2772Z" fill="white"/>
<path d="M26.3306 14.4058C28.3462 14.3993 30.3183 14.9916 31.9968 16.1075C33.6753 17.2234 34.9845 18.8127 35.7585 20.6738C36.5324 22.5349 36.7362 24.5839 36.3439 26.561C35.9517 28.538 34.981 30.3541 33.5552 31.7787C32.1293 33.2033 30.3124 34.1724 28.335 34.5629C26.3576 34.9535 24.3088 34.7479 22.4484 33.9724C20.5879 33.1968 18.9998 31.8862 17.8853 30.2067C16.7708 28.5272 16.1803 26.5546 16.1886 24.539C16.1967 21.8525 17.2681 19.2785 19.1686 17.3796C21.0691 15.4808 23.644 14.4116 26.3306 14.4058ZM26.4054 30.666C27.6125 30.6524 28.7885 30.2808 29.7842 29.5982C30.78 28.9157 31.5508 27.953 31.999 26.8321C32.4472 25.7111 32.5526 24.4824 32.3019 23.3015C32.0511 22.1206 31.4556 21.0406 30.5906 20.1985C29.7256 19.3563 28.6301 18.7899 27.443 18.5708C26.2558 18.3518 25.0303 18.49 23.9217 18.968C22.8132 19.446 21.8714 20.2423 21.2158 21.256C20.5601 22.2697 20.2201 23.4551 20.2388 24.6622C20.2608 26.2748 20.9218 27.8128 22.0768 28.9384C23.2317 30.0641 24.7861 30.6854 26.3988 30.666H26.4054Z" fill="black"/>
<path d="M13.0709 34.7026H9.09326V14.4868H13.0709V34.7026Z" fill="black"/>
<path d="M20.2812 11.277V9.38721H32.3812V11.277H20.2812Z" fill="black"/>
<path d="M26.4012 30.6658C25.1938 30.6771 24.0102 30.3297 23.0004 29.6677C21.9906 29.0057 21.2001 28.0588 20.729 26.9471C20.2578 25.8353 20.1274 24.6087 20.354 23.4228C20.5807 22.2368 21.1544 21.1448 22.0023 20.2852C22.8502 19.4255 23.9342 18.8369 25.1169 18.594C26.2997 18.351 27.5279 18.4646 28.6461 18.9204C29.7642 19.3762 30.7218 20.1537 31.3976 21.1543C32.0735 22.1548 32.4371 23.3335 32.4424 24.541C32.4482 26.1527 31.8163 27.7014 30.6845 28.8489C29.5526 29.9964 28.0128 30.6495 26.4012 30.6658Z" fill="white"/>
</svg>
